<?xml version="1.0" encoding="UTF-8"?>
<svg id="_ëîé_1" data-name="—ëîé_1" xmlns="http://www.w3.org/2000/svg" viewBox="0 0 518.15 421.38">
  <defs>
    <style>
      .cls-1 {
        fill: #1d71b8;
      }
    </style>
  </defs>
  <path class="cls-1" d="M517.53,287.42l-1.99-4.78c-1.25-2.99-4.17-4.94-7.4-4.94h-31.96l-9.68-29.83c-2.16-6.66-8.37-11.18-15.38-11.18h-147.95c-7.01,0-13.21,4.51-15.38,11.18l-9.68,29.83h-31.96c-3.24,0-6.16,1.95-7.4,4.94l-1.99,4.78c-1.78,4.27.41,9.16,4.78,10.67l21.08,7.28-16.64,14.75c-3.76,3.33-5.91,8.11-5.91,13.14v88.13h48.38v-24.19h177.39v24.19h48.38v-88.13c0-5.02-2.15-9.8-5.91-13.14l-16.64-14.75,21.08-7.28c4.37-1.51,6.56-6.4,4.78-10.67ZM304.12,354.67h-37.2c-4.7,0-8.52-3.81-8.52-8.52v-8.04c0-5.43,5.01-9.47,10.32-8.33l37.2,8.04c3.92.85,6.72,4.32,6.72,8.33,0,4.71-3.81,8.52-8.52,8.52ZM288.78,296.77l14.29-44.03h148.14l14.29,44.03h-176.73ZM495.89,338.11v8.04c0,4.71-3.81,8.52-8.52,8.52h-37.2c-4.7,0-8.52-3.81-8.52-8.52,0-4.01,2.8-7.48,6.72-8.33l37.2-8.04c5.31-1.15,10.32,2.9,10.32,8.33Z"/>
  <g>
    <path class="cls-1" d="M195.06,106.74c-5.52-1.04-16.61-1.56-33.27-1.56h-22.34v64.97h25.3c18.22,0,30.4-1.19,36.55-3.59,6.14-2.39,10.96-6.15,14.45-11.24,3.49-5.1,5.23-11.04,5.23-17.81,0-8.33-2.45-15.21-7.34-20.62-4.89-5.41-11.09-8.8-18.59-10.15Z"/>
    <path class="cls-1" d="M309.99,0H51.87C23.34,0,0,23.34,0,51.87v258.12c0,28.53,23.34,51.87,51.87,51.87h151.79v-17.39c0-6.71,2.88-13.1,7.9-17.55l22.22-19.87-16.62-9.56c-5.84-2.02-8.77-8.55-6.39-14.25l2.66-6.38c1.66-3.99,9.96-7.65,14.29-7.65l29.41-7.04,10.31-31.76c2.89-8.9,11.19-14.93,20.55-14.93h73.88V51.87c0-28.53-23.34-51.87-51.87-51.87ZM260.97,172.34c-5.1,9.58-11.58,17.1-19.44,22.57-7.86,5.47-15.85,9.09-23.98,10.86-11.04,2.19-27.02,3.28-47.95,3.28h-30.14v86.37h-46.23V66.44h74.19c28.11,0,46.44,1.15,54.98,3.44,13.12,3.44,24.1,10.91,32.96,22.42,8.85,11.51,13.28,26.37,13.28,44.59,0,14.06-2.55,25.88-7.65,35.45Z"/>
  </g>
</svg>